<svg xmlns="http://www.w3.org/2000/svg" xmlns:xlink="http://www.w3.org/1999/xlink" width="500" zoomAndPan="magnify" viewBox="0 0 375 374.999991" height="500" preserveAspectRatio="xMidYMid meet" version="1.0"><defs><g/></defs><g fill="#006cac" fill-opacity="1"><g transform="translate(11.520196, 220.508408)"><g><path d="M 40.03125 -13.203125 C 40.03125 -11.515625 39.882812 -10.046875 39.59375 -8.796875 C 39.882812 -7.617188 40.03125 -6.15625 40.03125 -4.40625 C 40.03125 -2.71875 39.882812 -1.25 39.59375 0 L 30.796875 0 C 30.503906 -1.25 30.359375 -2.71875 30.359375 -4.40625 C 30.359375 -6.15625 30.503906 -7.617188 30.796875 -8.796875 C 30.503906 -10.046875 30.359375 -11.515625 30.359375 -13.203125 C 30.359375 -14.960938 30.503906 -16.425781 30.796875 -17.59375 L 13.203125 -17.59375 C 13.492188 -16.425781 13.640625 -14.960938 13.640625 -13.203125 C 13.640625 -11.515625 13.492188 -10.046875 13.203125 -8.796875 C 13.492188 -7.617188 13.640625 -6.15625 13.640625 -4.40625 C 13.640625 -2.71875 13.492188 -1.25 13.203125 0 L 4.40625 0 C 4.101562 -1.25 3.953125 -2.71875 3.953125 -4.40625 C 3.953125 -6.15625 4.101562 -7.617188 4.40625 -8.796875 C 4.101562 -10.046875 3.953125 -11.515625 3.953125 -13.203125 C 3.953125 -14.960938 4.101562 -16.425781 4.40625 -17.59375 L 7.703125 -17.59375 C 7.410156 -18.84375 7.265625 -20.3125 7.265625 -22 C 7.265625 -23.757812 7.410156 -25.222656 7.703125 -26.390625 C 7.410156 -27.640625 7.265625 -29.109375 7.265625 -30.796875 C 7.265625 -32.554688 7.410156 -34.019531 7.703125 -35.1875 L 9.90625 -35.1875 C 9.601562 -36.4375 9.453125 -37.90625 9.453125 -39.59375 C 9.453125 -41.351562 9.601562 -42.820312 9.90625 -44 L 13.203125 -44 C 12.910156 -45.238281 12.765625 -46.703125 12.765625 -48.390625 C 12.765625 -50.148438 12.910156 -51.617188 13.203125 -52.796875 L 15.390625 -52.796875 C 15.097656 -54.035156 14.953125 -55.5 14.953125 -57.1875 C 14.953125 -58.945312 15.097656 -60.414062 15.390625 -61.59375 L 28.59375 -61.59375 C 28.882812 -60.414062 29.03125 -58.945312 29.03125 -57.1875 C 29.03125 -55.5 28.882812 -54.035156 28.59375 -52.796875 L 30.796875 -52.796875 C 31.085938 -51.617188 31.234375 -50.148438 31.234375 -48.390625 C 31.234375 -46.703125 31.085938 -45.238281 30.796875 -44 L 34.09375 -44 C 34.382812 -42.820312 34.53125 -41.351562 34.53125 -39.59375 C 34.53125 -37.90625 34.382812 -36.4375 34.09375 -35.1875 L 36.296875 -35.1875 C 36.585938 -34.019531 36.734375 -32.554688 36.734375 -30.796875 C 36.734375 -29.109375 36.585938 -27.640625 36.296875 -26.390625 C 36.585938 -25.222656 36.734375 -23.757812 36.734375 -22 C 36.734375 -20.3125 36.585938 -18.84375 36.296875 -17.59375 L 39.59375 -17.59375 C 39.882812 -16.425781 40.03125 -14.960938 40.03125 -13.203125 Z M 27.5 -26.390625 C 27.207031 -27.640625 27.0625 -29.109375 27.0625 -30.796875 C 27.0625 -32.554688 27.207031 -34.019531 27.5 -35.1875 L 25.296875 -35.1875 C 25.003906 -36.4375 24.859375 -37.90625 24.859375 -39.59375 C 24.859375 -41.351562 25.003906 -42.820312 25.296875 -44 L 18.703125 -44 C 18.992188 -42.820312 19.140625 -41.351562 19.140625 -39.59375 C 19.140625 -37.90625 18.992188 -36.4375 18.703125 -35.1875 L 16.5 -35.1875 C 16.789062 -34.019531 16.9375 -32.554688 16.9375 -30.796875 C 16.9375 -29.109375 16.789062 -27.640625 16.5 -26.390625 Z M 27.5 -26.390625 "/></g></g></g><g fill="#006cac" fill-opacity="1"><g transform="translate(55.510875, 220.508408)"><g><path d="M 39.59375 -8.796875 C 39.882812 -7.617188 40.03125 -6.15625 40.03125 -4.40625 C 40.03125 -2.71875 39.882812 -1.25 39.59375 0 L 24.203125 0 C 23.898438 -1.25 23.75 -2.71875 23.75 -4.40625 C 23.75 -6.15625 23.898438 -7.617188 24.203125 -8.796875 L 19.796875 -8.796875 C 19.503906 -10.046875 19.359375 -11.515625 19.359375 -13.203125 C 19.359375 -14.960938 19.503906 -16.425781 19.796875 -17.59375 L 13.203125 -17.59375 C 13.492188 -16.425781 13.640625 -14.960938 13.640625 -13.203125 C 13.640625 -11.515625 13.492188 -10.046875 13.203125 -8.796875 C 13.492188 -7.617188 13.640625 -6.15625 13.640625 -4.40625 C 13.640625 -2.71875 13.492188 -1.25 13.203125 0 L 4.40625 0 C 4.101562 -1.25 3.953125 -2.71875 3.953125 -4.40625 C 3.953125 -6.15625 4.101562 -7.617188 4.40625 -8.796875 C 4.101562 -10.046875 3.953125 -11.515625 3.953125 -13.203125 C 3.953125 -14.960938 4.101562 -16.425781 4.40625 -17.59375 C 4.101562 -18.84375 3.953125 -20.3125 3.953125 -22 C 3.953125 -23.757812 4.101562 -25.222656 4.40625 -26.390625 C 4.101562 -27.640625 3.953125 -29.109375 3.953125 -30.796875 C 3.953125 -32.554688 4.101562 -34.019531 4.40625 -35.1875 C 4.101562 -36.4375 3.953125 -37.90625 3.953125 -39.59375 C 3.953125 -41.351562 4.101562 -42.820312 4.40625 -44 C 4.101562 -45.238281 3.953125 -46.703125 3.953125 -48.390625 C 3.953125 -50.148438 4.101562 -51.617188 4.40625 -52.796875 C 4.101562 -54.035156 3.953125 -55.5 3.953125 -57.1875 C 3.953125 -58.945312 4.101562 -60.414062 4.40625 -61.59375 L 13.203125 -61.59375 C 13.492188 -60.414062 13.640625 -58.945312 13.640625 -57.1875 C 13.640625 -55.5 13.492188 -54.035156 13.203125 -52.796875 C 13.492188 -51.617188 13.640625 -50.148438 13.640625 -48.390625 C 13.640625 -46.703125 13.492188 -45.238281 13.203125 -44 C 13.492188 -42.820312 13.640625 -41.351562 13.640625 -39.59375 C 13.640625 -37.90625 13.492188 -36.4375 13.203125 -35.1875 C 13.492188 -34.019531 13.640625 -32.554688 13.640625 -30.796875 C 13.640625 -29.109375 13.492188 -27.640625 13.203125 -26.390625 L 19.796875 -26.390625 C 19.503906 -27.640625 19.359375 -29.109375 19.359375 -30.796875 C 19.359375 -32.554688 19.503906 -34.019531 19.796875 -35.1875 L 24.203125 -35.1875 C 23.898438 -36.4375 23.75 -37.90625 23.75 -39.59375 C 23.75 -41.351562 23.898438 -42.820312 24.203125 -44 L 37.390625 -44 C 37.679688 -42.820312 37.828125 -41.351562 37.828125 -39.59375 C 37.828125 -37.90625 37.679688 -36.4375 37.390625 -35.1875 L 28.59375 -35.1875 C 28.882812 -34.019531 29.03125 -32.554688 29.03125 -30.796875 C 29.03125 -29.109375 28.882812 -27.640625 28.59375 -26.390625 L 24.203125 -26.390625 C 24.492188 -25.222656 24.640625 -23.757812 24.640625 -22 C 24.640625 -20.3125 24.492188 -18.84375 24.203125 -17.59375 L 28.59375 -17.59375 C 28.882812 -16.425781 29.03125 -14.960938 29.03125 -13.203125 C 29.03125 -11.515625 28.882812 -10.046875 28.59375 -8.796875 Z M 39.59375 -8.796875 "/></g></g></g><g fill="#006cac" fill-opacity="1"><g transform="translate(99.501555, 220.508408)"><g><path d="M 37.828125 -13.203125 C 37.828125 -11.515625 37.679688 -10.046875 37.390625 -8.796875 L 33 -8.796875 C 33.289062 -7.617188 33.4375 -6.15625 33.4375 -4.40625 C 33.4375 -2.71875 33.289062 -1.25 33 0 L 8.796875 0 C 8.503906 -1.25 8.359375 -2.71875 8.359375 -4.40625 C 8.359375 -6.15625 8.503906 -7.617188 8.796875 -8.796875 L 28.59375 -8.796875 C 28.300781 -10.046875 28.15625 -11.515625 28.15625 -13.203125 C 28.15625 -14.960938 28.300781 -16.425781 28.59375 -17.59375 L 11 -17.59375 C 10.707031 -18.84375 10.5625 -20.3125 10.5625 -22 C 10.5625 -23.757812 10.707031 -25.222656 11 -26.390625 L 6.59375 -26.390625 C 6.300781 -27.640625 6.15625 -29.109375 6.15625 -30.796875 C 6.15625 -32.554688 6.300781 -34.019531 6.59375 -35.1875 L 11 -35.1875 C 10.707031 -36.4375 10.5625 -37.90625 10.5625 -39.59375 C 10.5625 -41.351562 10.707031 -42.820312 11 -44 L 35.1875 -44 C 35.488281 -42.820312 35.640625 -41.351562 35.640625 -39.59375 C 35.640625 -37.90625 35.488281 -36.4375 35.1875 -35.1875 L 15.390625 -35.1875 C 15.691406 -34.019531 15.84375 -32.554688 15.84375 -30.796875 C 15.84375 -29.109375 15.691406 -27.640625 15.390625 -26.390625 L 33 -26.390625 C 33.289062 -25.222656 33.4375 -23.757812 33.4375 -22 C 33.4375 -20.3125 33.289062 -18.84375 33 -17.59375 L 37.390625 -17.59375 C 37.679688 -16.425781 37.828125 -14.960938 37.828125 -13.203125 Z M 37.828125 -13.203125 "/></g></g></g><g fill="#006cac" fill-opacity="1"><g transform="translate(143.492235, 220.508408)"><g/></g></g><g fill="#fb8822" fill-opacity="1"><g transform="translate(187.491659, 220.508408)"><g><path d="M 39.59375 -52.796875 C 39.882812 -51.617188 40.03125 -50.148438 40.03125 -48.390625 C 40.03125 -46.703125 39.882812 -45.238281 39.59375 -44 C 39.882812 -42.820312 40.03125 -41.351562 40.03125 -39.59375 C 40.03125 -37.90625 39.882812 -36.4375 39.59375 -35.1875 C 39.882812 -34.019531 40.03125 -32.554688 40.03125 -30.796875 C 40.03125 -29.109375 39.882812 -27.640625 39.59375 -26.390625 L 36.296875 -26.390625 C 36.585938 -25.222656 36.734375 -23.757812 36.734375 -22 C 36.734375 -20.3125 36.585938 -18.84375 36.296875 -17.59375 C 36.585938 -16.425781 36.734375 -14.960938 36.734375 -13.203125 C 36.734375 -11.515625 36.585938 -10.046875 36.296875 -8.796875 L 34.09375 -8.796875 C 34.382812 -7.617188 34.53125 -6.15625 34.53125 -4.40625 C 34.53125 -2.71875 34.382812 -1.25 34.09375 0 L 27.5 0 C 27.207031 -1.25 27.0625 -2.71875 27.0625 -4.40625 C 27.0625 -6.15625 27.207031 -7.617188 27.5 -8.796875 L 25.296875 -8.796875 C 25.003906 -10.046875 24.859375 -11.515625 24.859375 -13.203125 C 24.859375 -14.960938 25.003906 -16.425781 25.296875 -17.59375 L 18.703125 -17.59375 C 18.992188 -16.425781 19.140625 -14.960938 19.140625 -13.203125 C 19.140625 -11.515625 18.992188 -10.046875 18.703125 -8.796875 L 16.5 -8.796875 C 16.789062 -7.617188 16.9375 -6.15625 16.9375 -4.40625 C 16.9375 -2.71875 16.789062 -1.25 16.5 0 L 9.90625 0 C 9.601562 -1.25 9.453125 -2.71875 9.453125 -4.40625 C 9.453125 -6.15625 9.601562 -7.617188 9.90625 -8.796875 L 7.703125 -8.796875 C 7.410156 -10.046875 7.265625 -11.515625 7.265625 -13.203125 C 7.265625 -14.960938 7.410156 -16.425781 7.703125 -17.59375 C 7.410156 -18.84375 7.265625 -20.3125 7.265625 -22 C 7.265625 -23.757812 7.410156 -25.222656 7.703125 -26.390625 L 4.40625 -26.390625 C 4.101562 -27.640625 3.953125 -29.109375 3.953125 -30.796875 C 3.953125 -32.554688 4.101562 -34.019531 4.40625 -35.1875 C 4.101562 -36.4375 3.953125 -37.90625 3.953125 -39.59375 C 3.953125 -41.351562 4.101562 -42.820312 4.40625 -44 C 4.101562 -45.238281 3.953125 -46.703125 3.953125 -48.390625 C 3.953125 -50.148438 4.101562 -51.617188 4.40625 -52.796875 C 4.101562 -54.035156 3.953125 -55.5 3.953125 -57.1875 C 3.953125 -58.945312 4.101562 -60.414062 4.40625 -61.59375 L 13.203125 -61.59375 C 13.492188 -60.414062 13.640625 -58.945312 13.640625 -57.1875 C 13.640625 -55.5 13.492188 -54.035156 13.203125 -52.796875 C 13.492188 -51.617188 13.640625 -50.148438 13.640625 -48.390625 C 13.640625 -46.703125 13.492188 -45.238281 13.203125 -44 C 13.492188 -42.820312 13.640625 -41.351562 13.640625 -39.59375 C 13.640625 -37.90625 13.492188 -36.4375 13.203125 -35.1875 C 13.492188 -34.019531 13.640625 -32.554688 13.640625 -30.796875 C 13.640625 -29.109375 13.492188 -27.640625 13.203125 -26.390625 C 13.492188 -25.222656 13.640625 -23.757812 13.640625 -22 C 13.640625 -20.3125 13.492188 -18.84375 13.203125 -17.59375 L 16.5 -17.59375 C 16.207031 -18.84375 16.0625 -20.3125 16.0625 -22 C 16.0625 -23.757812 16.207031 -25.222656 16.5 -26.390625 L 18.703125 -26.390625 C 18.398438 -27.640625 18.25 -29.109375 18.25 -30.796875 C 18.25 -32.554688 18.398438 -34.019531 18.703125 -35.1875 C 18.398438 -36.4375 18.25 -37.90625 18.25 -39.59375 C 18.25 -41.351562 18.398438 -42.820312 18.703125 -44 C 18.398438 -45.238281 18.25 -46.703125 18.25 -48.390625 C 18.25 -50.148438 18.398438 -51.617188 18.703125 -52.796875 C 18.398438 -54.035156 18.25 -55.5 18.25 -57.1875 C 18.25 -58.945312 18.398438 -60.414062 18.703125 -61.59375 L 25.296875 -61.59375 C 25.585938 -60.414062 25.734375 -58.945312 25.734375 -57.1875 C 25.734375 -55.5 25.585938 -54.035156 25.296875 -52.796875 C 25.585938 -51.617188 25.734375 -50.148438 25.734375 -48.390625 C 25.734375 -46.703125 25.585938 -45.238281 25.296875 -44 C 25.585938 -42.820312 25.734375 -41.351562 25.734375 -39.59375 C 25.734375 -37.90625 25.585938 -36.4375 25.296875 -35.1875 C 25.585938 -34.019531 25.734375 -32.554688 25.734375 -30.796875 C 25.734375 -29.109375 25.585938 -27.640625 25.296875 -26.390625 L 27.5 -26.390625 C 27.789062 -25.222656 27.9375 -23.757812 27.9375 -22 C 27.9375 -20.3125 27.789062 -18.84375 27.5 -17.59375 L 30.796875 -17.59375 C 30.503906 -18.84375 30.359375 -20.3125 30.359375 -22 C 30.359375 -23.757812 30.503906 -25.222656 30.796875 -26.390625 C 30.503906 -27.640625 30.359375 -29.109375 30.359375 -30.796875 C 30.359375 -32.554688 30.503906 -34.019531 30.796875 -35.1875 C 30.503906 -36.4375 30.359375 -37.90625 30.359375 -39.59375 C 30.359375 -41.351562 30.503906 -42.820312 30.796875 -44 C 30.503906 -45.238281 30.359375 -46.703125 30.359375 -48.390625 C 30.359375 -50.148438 30.503906 -51.617188 30.796875 -52.796875 C 30.503906 -54.035156 30.359375 -55.5 30.359375 -57.1875 C 30.359375 -58.945312 30.503906 -60.414062 30.796875 -61.59375 L 39.59375 -61.59375 C 39.882812 -60.414062 40.03125 -58.945312 40.03125 -57.1875 C 40.03125 -55.5 39.882812 -54.035156 39.59375 -52.796875 Z M 39.59375 -52.796875 "/></g></g></g><g fill="#fb8822" fill-opacity="1"><g transform="translate(231.482339, 220.508408)"><g><path d="M 17.59375 -52.796875 C 17.300781 -54.035156 17.15625 -55.5 17.15625 -57.1875 C 17.15625 -58.945312 17.300781 -60.414062 17.59375 -61.59375 L 26.390625 -61.59375 C 26.691406 -60.414062 26.84375 -58.945312 26.84375 -57.1875 C 26.84375 -55.5 26.691406 -54.035156 26.390625 -52.796875 Z M 35.1875 -8.796875 C 35.488281 -7.617188 35.640625 -6.15625 35.640625 -4.40625 C 35.640625 -2.71875 35.488281 -1.25 35.1875 0 L 8.796875 0 C 8.503906 -1.25 8.359375 -2.71875 8.359375 -4.40625 C 8.359375 -6.15625 8.503906 -7.617188 8.796875 -8.796875 L 17.59375 -8.796875 C 17.300781 -10.046875 17.15625 -11.515625 17.15625 -13.203125 C 17.15625 -14.960938 17.300781 -16.425781 17.59375 -17.59375 C 17.300781 -18.84375 17.15625 -20.3125 17.15625 -22 C 17.15625 -23.757812 17.300781 -25.222656 17.59375 -26.390625 C 17.300781 -27.640625 17.15625 -29.109375 17.15625 -30.796875 C 17.15625 -32.554688 17.300781 -34.019531 17.59375 -35.1875 L 11 -35.1875 C 10.707031 -36.4375 10.5625 -37.90625 10.5625 -39.59375 C 10.5625 -41.351562 10.707031 -42.820312 11 -44 L 26.390625 -44 C 26.691406 -42.820312 26.84375 -41.351562 26.84375 -39.59375 C 26.84375 -37.90625 26.691406 -36.4375 26.390625 -35.1875 C 26.691406 -34.019531 26.84375 -32.554688 26.84375 -30.796875 C 26.84375 -29.109375 26.691406 -27.640625 26.390625 -26.390625 C 26.691406 -25.222656 26.84375 -23.757812 26.84375 -22 C 26.84375 -20.3125 26.691406 -18.84375 26.390625 -17.59375 C 26.691406 -16.425781 26.84375 -14.960938 26.84375 -13.203125 C 26.84375 -11.515625 26.691406 -10.046875 26.390625 -8.796875 Z M 35.1875 -8.796875 "/></g></g></g><g fill="#fb8822" fill-opacity="1"><g transform="translate(275.473018, 220.508408)"><g><path d="M 39.59375 -8.796875 C 39.882812 -7.617188 40.03125 -6.15625 40.03125 -4.40625 C 40.03125 -2.71875 39.882812 -1.25 39.59375 0 L 24.203125 0 C 23.898438 -1.25 23.75 -2.71875 23.75 -4.40625 C 23.75 -6.15625 23.898438 -7.617188 24.203125 -8.796875 L 19.796875 -8.796875 C 19.503906 -10.046875 19.359375 -11.515625 19.359375 -13.203125 C 19.359375 -14.960938 19.503906 -16.425781 19.796875 -17.59375 L 13.203125 -17.59375 C 13.492188 -16.425781 13.640625 -14.960938 13.640625 -13.203125 C 13.640625 -11.515625 13.492188 -10.046875 13.203125 -8.796875 C 13.492188 -7.617188 13.640625 -6.15625 13.640625 -4.40625 C 13.640625 -2.71875 13.492188 -1.25 13.203125 0 L 4.40625 0 C 4.101562 -1.25 3.953125 -2.71875 3.953125 -4.40625 C 3.953125 -6.15625 4.101562 -7.617188 4.40625 -8.796875 C 4.101562 -10.046875 3.953125 -11.515625 3.953125 -13.203125 C 3.953125 -14.960938 4.101562 -16.425781 4.40625 -17.59375 C 4.101562 -18.84375 3.953125 -20.3125 3.953125 -22 C 3.953125 -23.757812 4.101562 -25.222656 4.40625 -26.390625 C 4.101562 -27.640625 3.953125 -29.109375 3.953125 -30.796875 C 3.953125 -32.554688 4.101562 -34.019531 4.40625 -35.1875 C 4.101562 -36.4375 3.953125 -37.90625 3.953125 -39.59375 C 3.953125 -41.351562 4.101562 -42.820312 4.40625 -44 C 4.101562 -45.238281 3.953125 -46.703125 3.953125 -48.390625 C 3.953125 -50.148438 4.101562 -51.617188 4.40625 -52.796875 C 4.101562 -54.035156 3.953125 -55.5 3.953125 -57.1875 C 3.953125 -58.945312 4.101562 -60.414062 4.40625 -61.59375 L 13.203125 -61.59375 C 13.492188 -60.414062 13.640625 -58.945312 13.640625 -57.1875 C 13.640625 -55.5 13.492188 -54.035156 13.203125 -52.796875 C 13.492188 -51.617188 13.640625 -50.148438 13.640625 -48.390625 C 13.640625 -46.703125 13.492188 -45.238281 13.203125 -44 C 13.492188 -42.820312 13.640625 -41.351562 13.640625 -39.59375 C 13.640625 -37.90625 13.492188 -36.4375 13.203125 -35.1875 C 13.492188 -34.019531 13.640625 -32.554688 13.640625 -30.796875 C 13.640625 -29.109375 13.492188 -27.640625 13.203125 -26.390625 L 19.796875 -26.390625 C 19.503906 -27.640625 19.359375 -29.109375 19.359375 -30.796875 C 19.359375 -32.554688 19.503906 -34.019531 19.796875 -35.1875 L 24.203125 -35.1875 C 23.898438 -36.4375 23.75 -37.90625 23.75 -39.59375 C 23.75 -41.351562 23.898438 -42.820312 24.203125 -44 L 37.390625 -44 C 37.679688 -42.820312 37.828125 -41.351562 37.828125 -39.59375 C 37.828125 -37.90625 37.679688 -36.4375 37.390625 -35.1875 L 28.59375 -35.1875 C 28.882812 -34.019531 29.03125 -32.554688 29.03125 -30.796875 C 29.03125 -29.109375 28.882812 -27.640625 28.59375 -26.390625 L 24.203125 -26.390625 C 24.492188 -25.222656 24.640625 -23.757812 24.640625 -22 C 24.640625 -20.3125 24.492188 -18.84375 24.203125 -17.59375 L 28.59375 -17.59375 C 28.882812 -16.425781 29.03125 -14.960938 29.03125 -13.203125 C 29.03125 -11.515625 28.882812 -10.046875 28.59375 -8.796875 Z M 39.59375 -8.796875 "/></g></g></g><g fill="#fb8822" fill-opacity="1"><g transform="translate(319.463698, 220.508408)"><g><path d="M 17.59375 -52.796875 C 17.300781 -54.035156 17.15625 -55.5 17.15625 -57.1875 C 17.15625 -58.945312 17.300781 -60.414062 17.59375 -61.59375 L 26.390625 -61.59375 C 26.691406 -60.414062 26.84375 -58.945312 26.84375 -57.1875 C 26.84375 -55.5 26.691406 -54.035156 26.390625 -52.796875 Z M 35.1875 -8.796875 C 35.488281 -7.617188 35.640625 -6.15625 35.640625 -4.40625 C 35.640625 -2.71875 35.488281 -1.25 35.1875 0 L 8.796875 0 C 8.503906 -1.25 8.359375 -2.71875 8.359375 -4.40625 C 8.359375 -6.15625 8.503906 -7.617188 8.796875 -8.796875 L 17.59375 -8.796875 C 17.300781 -10.046875 17.15625 -11.515625 17.15625 -13.203125 C 17.15625 -14.960938 17.300781 -16.425781 17.59375 -17.59375 C 17.300781 -18.84375 17.15625 -20.3125 17.15625 -22 C 17.15625 -23.757812 17.300781 -25.222656 17.59375 -26.390625 C 17.300781 -27.640625 17.15625 -29.109375 17.15625 -30.796875 C 17.15625 -32.554688 17.300781 -34.019531 17.59375 -35.1875 L 11 -35.1875 C 10.707031 -36.4375 10.5625 -37.90625 10.5625 -39.59375 C 10.5625 -41.351562 10.707031 -42.820312 11 -44 L 26.390625 -44 C 26.691406 -42.820312 26.84375 -41.351562 26.84375 -39.59375 C 26.84375 -37.90625 26.691406 -36.4375 26.390625 -35.1875 C 26.691406 -34.019531 26.84375 -32.554688 26.84375 -30.796875 C 26.84375 -29.109375 26.691406 -27.640625 26.390625 -26.390625 C 26.691406 -25.222656 26.84375 -23.757812 26.84375 -22 C 26.84375 -20.3125 26.691406 -18.84375 26.390625 -17.59375 C 26.691406 -16.425781 26.84375 -14.960938 26.84375 -13.203125 C 26.84375 -11.515625 26.691406 -10.046875 26.390625 -8.796875 Z M 35.1875 -8.796875 "/></g></g></g></svg>